<?xml version="1.0" standalone="no"?>
<!DOCTYPE svg PUBLIC "-//W3C//DTD SVG 20010904//EN"
 "http://www.w3.org/TR/2001/REC-SVG-20010904/DTD/svg10.dtd">
<svg version="1.0" xmlns="http://www.w3.org/2000/svg"
 width="512.000000pt" height="512.000000pt" viewBox="0 0 512.000000 512.000000"
 preserveAspectRatio="xMidYMid meet">
<metadata>
Created by potrace 1.14, written by Peter Selinger 2001-2017
</metadata>
<g transform="translate(0.000000,512.000000) scale(0.100000,-0.100000)"
fill="#000000" stroke="none">
<path d="M3245 3460 c-457 -52 -748 -368 -772 -840 -18 -351 95 -652 304 -809
179 -134 359 -175 688 -159 139 7 296 32 410 66 l60 18 3 432 2 432 -310 0
-310 0 0 -95 0 -95 205 0 205 0 0 -269 c0 -248 -1 -270 -17 -275 -76 -22 -207
-37 -328 -37 -245 -1 -381 46 -510 176 -122 121 -174 263 -182 498 -11 278 44
445 196 598 127 127 268 179 483 179 135 0 229 -16 369 -64 l96 -32 38 88 c21
48 36 90 34 93 -13 12 -196 66 -270 79 -113 20 -294 27 -394 16z"/>
<path d="M1180 2555 l0 -885 495 0 495 0 0 90 0 90 -390 0 -390 0 0 330 0 330
370 0 371 0 -3 88 -3 87 -367 3 -368 2 0 285 0 285 390 0 390 0 0 90 0 90
-495 0 -495 0 0 -885z"/>
</g>
</svg>
